<svg xmlns="http://www.w3.org/2000/svg" viewBox="0 0 758.52 55.34"><defs><style>.cls-1{fill:#94763a;}.cls-2{fill:#000;}.cls-3{fill:none;}</style></defs><title>penske-luxury-logo</title><g id="Layer_2" data-name="Layer 2"><g id="Layer_1-2" data-name="Layer 1"><path class="cls-1" d="M56.21,12.58a14.84,14.84,0,0,0-1.47-1.91h-5L39.37,30.29H44a4.48,4.48,0,0,0,2.86-.46,6.31,6.31,0,0,0,1.79-1.65,9.75,9.75,0,0,0,.59-1.11l5.88-11.14a8.08,8.08,0,0,0,1.07-3.35M82.77,7.44a14.8,14.8,0,0,1-1.2,5.34l-11,21.07a11.69,11.69,0,0,1-4.81,3.88,23,23,0,0,1-10.55,2.05H34.28L26.84,53.87H0L28,1.19H77.56q2.94.39,4.81,4.34a4,4,0,0,1,.4,1.91"/><polygon class="cls-1" points="95.14 1.19 67.17 53.87 114.29 53.87 119.36 44.34 97.87 44.34 105.35 30.32 126.78 30.32 131.91 20.62 110.42 20.62 116.03 10.02 137.52 10.02 142.13 1.19 95.14 1.19"/><polygon class="cls-1" points="188.98 1.19 175.5 26.6 176.97 1.19 150.74 1.19 122.9 53.87 146 53.87 159.75 27.79 158.48 53.87 184.12 53.87 211.95 1.19 188.98 1.19"/><path class="cls-1" d="M264,1.06q6.27,1.57,7.35,2a9,9,0,0,1,5.27,4.82,5.73,5.73,0,0,1,.2,1.51q0,3.63-3.07,8.77H245.57l2.54-4.78a1.88,1.88,0,0,0-.31-2.22,5.3,5.3,0,0,0-3.3-.72,7.77,7.77,0,0,0-2.74.39c-.84.31-1.75,1.39-2.73,3.23a8.81,8.81,0,0,0-1.34,4.48c.09.62.69,1.34,1.8,2.18l20.1,7.57,2.93,1.85a6.74,6.74,0,0,1,2.21,4c.17.79-.27,2.24-1.34,4.35l-4.27,8.36a8.62,8.62,0,0,1-.93,1.25,10.19,10.19,0,0,1-2.94,2.44q-8.88,4.88-26.5,4.88a115.77,115.77,0,0,1-18.69-1.45q-8.15-1.32-10.21-2.9a6.9,6.9,0,0,1-2.94-5.73A11,11,0,0,1,197,44a57.18,57.18,0,0,1,4.27-9.1h26.9l-3,6.07a3,3,0,0,0-.8,1.84c0,1.14,1.3,1.71,3.88,1.71a6.39,6.39,0,0,0,3.46-.66c1.07-.88,2.19-2.72,3.34-5.53a2.93,2.93,0,0,0,.67-1.85,3.59,3.59,0,0,0-.14-1,3.84,3.84,0,0,0-2.13-2l-20.09-8.24a8.66,8.66,0,0,1-2.57-2.83,8.65,8.65,0,0,1-.43-3.83q.12-2,3.53-7.64,4.33-7.17,9.08-8.56Q231.16,0,245.24,0A162,162,0,0,1,264,1.06"/><polygon class="cls-1" points="328.66 1.19 306.9 18.37 316.11 1.19 289.61 1.19 261.78 53.87 288.27 53.87 293.55 43.79 299.63 38.26 301.96 53.87 327.46 53.87 322.45 22.79 353.42 1.19 328.66 1.19"/><polygon class="cls-1" points="357.87 1.19 329.9 53.87 377.02 53.87 382.1 44.34 360.6 44.34 368.08 30.32 389.5 30.32 394.64 20.62 373.15 20.62 378.76 10.02 400.25 10.02 404.86 1.19 357.87 1.19"/><path class="cls-2" d="M418.55,53.94V1.21h6.85V49.79h27.19v4.15Z"/><path class="cls-2" d="M471.5,1.21V35.63c0,1,0,2,.07,3a12.2,12.2,0,0,0,.53,3,13.76,13.76,0,0,0,1.36,3,12.88,12.88,0,0,0,2.63,3,15.49,15.49,0,0,0,4.64,2.94,15.06,15.06,0,0,0,5.61,1,23.48,23.48,0,0,0,7.08-1.06,13.85,13.85,0,0,0,6.1-4,14.07,14.07,0,0,0,2.3-3.31A16.78,16.78,0,0,0,503,39.81a19.7,19.7,0,0,0,.45-3.39c.05-1.13.07-2.24.07-3.35V1.21h3.32V35.56a21.7,21.7,0,0,1-1.28,7.49,17.24,17.24,0,0,1-10.06,10.28,22.6,22.6,0,0,1-8.55,1.51q-7.68,0-12.13-2.15a17.07,17.07,0,0,1-6.7-5.34,16.42,16.42,0,0,1-2.86-6.93,42.19,42.19,0,0,1-.61-6.82V1.21Z"/><path class="cls-2" d="M543.43,21.92h.38L559.7,1.21h4l-18,23.58,22.83,29.15H560L541.63,30.36h-.31l-18,23.58h-4.07l20.19-26.29L518.88,1.21h8.43Z"/><path class="cls-2" d="M587.42,1.21V35.63c0,1,0,2,.08,3a11.74,11.74,0,0,0,.53,3,13.71,13.71,0,0,0,1.35,3,12.71,12.71,0,0,0,2.64,3,15.45,15.45,0,0,0,4.63,2.94,15.06,15.06,0,0,0,5.61,1,23.48,23.48,0,0,0,7.08-1.06,14.84,14.84,0,0,0,8.4-7.3,15.62,15.62,0,0,0,1.17-3.36,19.7,19.7,0,0,0,.45-3.39c0-1.13.07-2.24.07-3.35V1.21h3.32V35.56a21.7,21.7,0,0,1-1.28,7.49,17.17,17.17,0,0,1-10.06,10.28,22.53,22.53,0,0,1-8.55,1.51q-7.68,0-12.12-2.15A17,17,0,0,1,584,47.35a16.55,16.55,0,0,1-2.86-6.93,43.26,43.26,0,0,1-.6-6.82V1.21Z"/><path class="cls-2" d="M694.38,1.21,709.75,29h.3L726.17,1.21h4.07L711.71,33.3V53.94h-6.86V34L686.62,1.21Z"/><path class="cls-3" d="M667.83,19.7a11.38,11.38,0,0,0,.79-4.1,11.21,11.21,0,0,0-.87-4.45,9.74,9.74,0,0,0-2.53-3.5,12.22,12.22,0,0,0-4-2.3,15.3,15.3,0,0,0-5.18-.83h-7.64V27.27h7.79a12.74,12.74,0,0,0,5.33-1.05,12.36,12.36,0,0,0,3.9-2.75A11.67,11.67,0,0,0,667.83,19.7Z"/><path class="cls-2" d="M681.47,53.94,662.12,29.12a16.26,16.26,0,0,0,6.3-1.7A13.1,13.1,0,0,0,672.64,24a13.24,13.24,0,0,0,2.39-4.4,15.4,15.4,0,0,0,.75-4.64,14.57,14.57,0,0,0-.79-4.44,12,12,0,0,0-2.72-4.48A14.88,14.88,0,0,0,667,2.6a21.69,21.69,0,0,0-8.36-1.39h-17.1V53.94h6.85v-24h3.33l2.54,0,18.66,24Zm-33-26.67V4.52h7.64a15.3,15.3,0,0,1,5.18.83,12.22,12.22,0,0,1,4,2.3,9.74,9.74,0,0,1,2.53,3.5,11.21,11.21,0,0,1,.87,4.45,11.38,11.38,0,0,1-.79,4.1,11.67,11.67,0,0,1-2.38,3.77,12.36,12.36,0,0,1-3.9,2.75,12.74,12.74,0,0,1-5.33,1.05Z"/><path class="cls-2" d="M737.09,8A11.4,11.4,0,0,1,743,2.09a11.17,11.17,0,0,1,8.69,0A11.31,11.31,0,0,1,757.64,8a10.73,10.73,0,0,1,.88,4.34,10.75,10.75,0,0,1-.88,4.33,11.25,11.25,0,0,1-5.93,5.95,11.17,11.17,0,0,1-8.69,0,11.35,11.35,0,0,1-5.93-5.95,10.75,10.75,0,0,1-.88-4.33A10.73,10.73,0,0,1,737.09,8Zm1.85,7.88a9.62,9.62,0,0,0,2,2.91,9.74,9.74,0,0,0,2.91,2,9,9,0,0,0,7.07,0,9.42,9.42,0,0,0,4.89-4.89,9,9,0,0,0,0-7.07,9.42,9.42,0,0,0-4.89-4.89,9,9,0,0,0-7.07,0,9.74,9.74,0,0,0-2.91,2,9.62,9.62,0,0,0-2,2.91,9,9,0,0,0,0,7.07Z"/><path class="cls-2" d="M752.13,17.5l-3.81-4.89a3.28,3.28,0,0,0,1.24-.33,2.53,2.53,0,0,0,.83-.67,2.64,2.64,0,0,0,.47-.87,2.94,2.94,0,0,0,.15-.91,2.7,2.7,0,0,0-.16-.88,2.38,2.38,0,0,0-.53-.88,2.94,2.94,0,0,0-1-.68,4.37,4.37,0,0,0-1.65-.28h-3.37V17.5h1.35V12.77h1.16l3.67,4.73Zm-6.51-5.25V7.77h1.51a3,3,0,0,1,1,.16,2.49,2.49,0,0,1,.78.45,2.1,2.1,0,0,1,.5.69,2.3,2.3,0,0,1,.17.88,2.2,2.2,0,0,1-.16.81,2.26,2.26,0,0,1-.47.74,2.49,2.49,0,0,1-.76.54,2.52,2.52,0,0,1-1.05.21Z"/></g></g></svg>
